<svg xmlns="http://www.w3.org/2000/svg"
 xmlns:xlink="http://www.w3.org/1999/xlink"
 width="119px" height="131px"  viewBox="0 0 119 131">
<path fill-rule="evenodd"  fill="#ffffff"
 d="M73.8385,7.9904785 C85.3689,13.891602 93.67944,18.536621 104.45581,24.521484 C114.8858,29.71753 117.00745,36.091553 116.98328,49.203613 C116.98364,61.09082 117.019104,70.27832 116.98328,83.66284 C117.026794,97.033936 114.36658,99.232666 103.76697,106.15625 C93.85925,111.9209 85.100586,116.96118 73.8385,123.28589 C63.957397,129.69604 55.619507,129.4336 46.603607,123.28589 C35.59268,117.31177 27.641998,112.73828 16.67514,106.15625 C6.0794983,99.68677 2.2190552,94.74536 2.0333252,82.072754 C2.063324,69.983154 1.9352417,61.32373 2.0333252,49.203613 C1.9957886,36.77954 6.245117,30.170166 16.67514,25.12207 C27.871216,18.07788 35.59268,13.644287 46.603607,7.9904785 C58.716736,1.348877 61.793213,1.2988281 73.8385,7.9904785 Z"/>
</svg>